<svg width="15" height="15" viewBox="0 0 15 15" fill="none" xmlns="http://www.w3.org/2000/svg">
<g id="game-icons:two-coins">
<path id="Vector" d="M7.74614 2.78321C6.70317 2.78145 5.39653 3.11104 4.10746 3.78194C2.82045 4.45284 1.80033 5.33175 1.20151 6.19014C0.602385 7.04561 0.440374 7.84249 0.7351 8.41085C1.03012 8.97628 1.77602 9.30147 2.82162 9.30147C3.86723 9.3044 5.17387 8.97335 6.46 8.30538C7.74906 7.63448 8.7686 6.75264 9.36625 5.89717C9.96684 5.04171 10.125 4.24483 9.83207 3.67647C9.53617 3.11104 8.79203 2.78321 7.74614 2.78321ZM10.4385 4.84249C10.336 5.29073 10.1133 5.75069 9.79985 6.19893C9.13774 7.14522 8.05668 8.06807 6.70317 8.7712C5.34965 9.47725 3.97563 9.83175 2.82133 9.83175C2.27641 9.83175 1.77133 9.74971 1.34565 9.57686L1.6559 10.1745C1.95121 10.7429 2.69506 11.0681 3.74125 11.0681C4.78715 11.0681 6.09379 10.7399 7.37992 10.0691C8.66899 9.40108 9.68852 8.51925 10.2862 7.66085C10.8838 6.80538 11.0479 6.0085 10.752 5.44307L10.4385 4.84249ZM11.2823 5.33468C11.6104 6.1169 11.3467 7.06905 10.7198 7.9626C10.1661 8.75655 9.31938 9.52706 8.27055 10.1716C8.59574 10.2067 8.93559 10.2243 9.28129 10.2243C10.7315 10.2243 12.044 9.91378 12.9698 9.43038C13.8985 8.94698 14.4082 8.31417 14.4082 7.6755C14.4082 7.03682 13.8985 6.40401 12.9698 5.92061C12.4981 5.67452 11.9239 5.47237 11.2823 5.33468ZM14.4082 8.99092C14.1094 9.33956 13.6993 9.64717 13.2159 9.89913C12.1905 10.4323 10.8077 10.7517 9.28129 10.7517C8.6602 10.7517 8.06254 10.6989 7.50297 10.5993C6.82328 10.9421 6.14067 11.197 5.48442 11.364C5.51957 11.3845 5.55473 11.4021 5.59281 11.4226C6.5186 11.906 7.8311 12.2165 9.28129 12.2165C10.7315 12.2165 12.044 11.906 12.9698 11.4226C13.8985 10.9392 14.4082 10.3064 14.4082 9.66768V8.99092Z" fill="#FFD233"/>
</g>
</svg>
